<?xml version="1.0" encoding="UTF-8" standalone="no"?>
<svg xmlns="http://www.w3.org/2000/svg" viewBox="0 0 2244 600" preserveAspectRatio="xMidYMid meet">
  <title>KOVO ROPÁK s.r.o.</title>
  <path d="M589.50,598.41C577.22,597.52 565.21,594.79 556.33,590.87C552.26,589.07 552.07,589.07 547.83,590.99C539.85,594.61 530.47,592.74 527.46,586.91C525.74,583.60 525.57,575.79 527.06,569.19C527.65,566.61 528.59,562.48 529.16,560.00C532.24,546.59 537.74,539.31 546.41,537.13C555.14,534.93 564.00,540.43 564.00,548.04C564.00,551.38 568.87,555.97 575.76,559.13C582.27,562.11 586.10,563.05 596.00,564.10C614.79,566.08 635.15,562.88 645.51,556.33C650.66,553.07 652.50,550.14 651.62,546.60C649.73,539.10 640.60,535.73 612.00,531.99C599.81,530.39 591.76,529.10 587.50,528.07C585.30,527.53 582.15,526.81 580.50,526.47C571.92,524.70 560.84,518.28 556.47,512.55C548.38,501.94 548.08,488.76 555.58,473.43C562.55,459.17 581.50,446.80 605.00,441.15C625.22,436.28 651.27,438.12 667.65,445.57C671.61,447.37 672.80,447.35 676.38,445.48C683.67,441.68 692.15,443.15 695.11,448.72C698.90,455.85 694.12,482.38 687.73,489.66C683.81,494.12 679.13,496.00 671.95,496.00C666.89,496.00 665.79,495.63 663.27,493.12C661.68,491.53 659.86,488.49 659.21,486.37C657.28,480.06 647.54,475.27 632.14,473.06C613.01,470.31 585.10,477.90 585.02,485.88C584.99,488.01 591.54,493.69 594.69,494.27C596.24,494.56 608.08,496.63 621.00,498.88C633.92,501.12 646.08,503.39 648.00,503.91C649.92,504.44 652.62,505.16 654.00,505.53C664.00,508.19 675.36,515.93 680.30,523.45C685.50,531.37 686.43,534.58 686.33,544.08C686.25,551.59 685.83,553.57 683.09,559.31C674.70,576.89 653.49,590.72 626.06,596.49C619.19,597.93 598.18,599.04 589.50,598.41zM796.23,598.10C781.70,595.59 777.00,577.66 787.58,565.09C791.31,560.65 797.69,556.56 803.21,555.05C809.24,553.40 819.41,554.08 824.34,556.46C828.97,558.69 832.98,564.42 833.70,569.82C834.91,578.83 827.20,591.34 817.67,595.81C812.86,598.08 802.49,599.18 796.23,598.10zM1206.50,598.41C1205.40,598.14 1203.48,597.70 1202.22,597.44C1198.27,596.59 1192.36,590.37 1191.05,585.67C1189.03,578.47 1192.22,568.98 1198.69,562.93C1206.06,556.02 1213.08,553.52 1223.23,554.16C1230.81,554.65 1236.64,557.41 1239.75,561.98C1242.80,566.48 1242.88,576.15 1239.91,582.47C1237.45,587.71 1230.64,594.29 1225.43,596.46C1221.60,598.07 1210.01,599.25 1206.50,598.41zM1408.00,598.38C1377.68,596.00 1352.80,578.03 1345.19,553.00C1338.66,531.53 1344.65,506.13 1361.62,483.30C1373.56,467.24 1388.36,455.70 1407.50,447.51C1418.46,442.82 1424.83,441.10 1437.35,439.43C1463.96,435.89 1488.67,444.13 1505.57,462.20C1513.84,471.04 1517.65,478.98 1520.58,493.50C1525.50,517.83 1515.67,545.42 1494.54,566.56C1481.93,579.17 1465.44,588.57 1445.00,594.78C1436.05,597.50 1418.53,599.21 1408.00,598.38zM1613.99,598.13C1604.97,596.23 1599.64,589.81 1599.76,581.02C1599.97,565.82 1613.10,554.00 1629.78,554.00C1640.79,554.00 1648.37,558.62 1650.83,566.82C1653.89,577.04 1645.80,591.72 1634.49,596.44C1630.30,598.19 1618.77,599.14 1613.99,598.13zM938.71,592.77C923.20,589.54 923.72,569.52 939.50,562.10C943.41,560.27 945.82,560.00 958.51,560.00C975.13,560.00 973.73,560.85 976.03,549.38C976.68,546.15 977.57,541.70 978.01,539.50C978.45,537.30 979.35,532.80 980.00,529.50C980.65,526.20 981.55,521.70 982.00,519.50C982.45,517.30 983.30,513.02 983.89,510.00C984.49,506.98 985.90,500.23 987.03,495.00C988.16,489.77 989.34,483.66 989.66,481.41L990.22,477.31L979.36,476.72C972.29,476.34 967.36,475.56 965.23,474.49C957.49,470.58 956.76,459.15 963.72,451.01C969.84,443.87 970.92,443.65 1002.75,443.22C1027.85,442.88 1031.00,443.01 1031.00,444.40C1031.00,445.26 1030.27,449.59 1029.38,454.02C1028.48,458.46 1027.99,462.33 1028.29,462.62C1028.80,463.14 1035.24,459.85 1040.62,456.33C1053.48,447.90 1070.15,441.02 1082.55,439.02C1095.69,436.91 1109.30,441.48 1119.65,451.50C1127.56,459.15 1128.60,465.51 1123.44,474.58C1118.95,482.46 1108.19,486.82 1100.93,483.70C1099.04,482.89 1095.71,480.56 1093.53,478.52C1087.07,472.51 1084.69,471.64 1078.65,473.08C1070.44,475.04 1049.48,486.53 1033.31,497.94C1030.11,500.19 1025.41,503.48 1022.85,505.25C1019.21,507.77 1018.08,509.23 1017.62,511.98C1017.31,513.92 1016.56,517.75 1015.97,520.50C1015.37,523.25 1014.51,527.52 1014.05,530.00C1013.60,532.48 1012.22,539.23 1011.00,545.00C1009.77,550.77 1008.71,556.40 1008.63,557.50C1008.50,559.45 1009.28,559.51 1038.00,560.00C1058.93,560.35 1068.13,560.86 1069.68,561.75C1079.28,567.24 1077.59,583.06 1066.72,589.42C1064.40,590.77 1059.58,592.36 1056.00,592.93C1047.59,594.29 945.34,594.15 938.71,592.77zM1440.50,562.50C1455.93,558.52 1471.44,547.73 1479.87,535.10C1485.07,527.31 1486.52,522.11 1486.42,511.50C1486.34,504.01 1485.90,501.58 1483.74,497.00C1478.91,486.74 1469.26,478.06 1459.50,475.22C1447.08,471.59 1439.58,471.48 1426.00,474.71C1399.77,480.96 1377.81,505.24 1377.88,527.92C1377.94,545.62 1393.59,561.49 1413.50,564.04C1420.84,564.98 1433.76,564.24 1440.50,562.50zM1721.00,464.91C1708.08,464.48 1683.78,463.65 1667.00,463.07C1650.22,462.49 1622.01,461.56 1604.30,460.99C1586.58,460.42 1569.48,459.51 1566.30,458.97C1553.11,456.73 1548.15,455.70 1541.50,453.78C1533.17,451.37 1523.28,448.20 1520.50,447.03C1519.40,446.57 1515.80,445.18 1512.50,443.95C1506.22,441.60 1491.35,433.38 1490.30,431.67C1489.96,431.12 1490.73,429.83 1492.01,428.79C1494.32,426.92 1498.05,427.02 1501.97,429.05C1502.81,429.49 1507.33,431.27 1512.00,433.02C1516.67,434.76 1521.40,436.57 1522.50,437.03C1529.11,439.80 1548.75,445.48 1556.50,446.87C1571.41,449.52 1577.58,449.99 1610.50,450.98C1629.75,451.55 1658.78,452.47 1675.00,453.02C1713.31,454.31 1742.00,454.30 1742.00,453.00C1742.00,452.45 1740.98,452.00 1739.74,452.00C1735.31,452.00 1727.33,448.50 1712.75,440.15C1706.05,436.31 1702.06,434.04 1698.63,432.09C1696.78,431.04 1692.17,428.29 1688.38,425.97C1684.60,423.64 1677.22,419.17 1672.00,416.01C1666.78,412.86 1658.00,407.45 1652.50,403.98C1647.00,400.52 1639.12,395.59 1635.00,393.03C1625.23,386.97 1536.47,327.53 1519.00,315.34C1511.58,310.17 1499.76,302.02 1492.75,297.24C1485.74,292.46 1480.00,288.03 1480.00,287.39C1480.00,286.18 1486.57,282.63 1487.80,283.18C1488.91,283.68 1513.33,300.24 1514.47,301.26C1518.22,304.62 1616.00,370.28 1616.00,369.44C1616.00,368.68 1613.32,366.00 1612.56,366.00C1611.76,366.00 1606.47,361.39 1601.03,355.98C1594.51,349.47 1592.00,344.12 1592.00,336.75C1592.00,326.68 1596.55,322.54 1610.94,319.51C1619.30,317.75 1640.60,317.50 1651.31,319.03C1661.43,320.47 1671.19,322.09 1673.26,322.66C1676.31,323.50 1674.21,324.79 1668.75,325.44C1665.86,325.78 1659.67,326.52 1655.00,327.08C1639.02,329.00 1628.51,332.27 1625.10,336.37C1622.85,339.09 1623.59,347.19 1626.60,352.61C1632.56,363.35 1648.35,380.26 1665.25,393.98C1669.51,397.44 1673.00,400.71 1673.00,401.26C1673.00,401.90 1672.56,401.90 1671.75,401.28C1671.06,400.74 1666.07,397.95 1660.65,395.08C1655.23,392.20 1649.27,388.98 1647.40,387.93C1635.30,381.07 1636.00,381.37 1636.00,383.00C1636.00,383.55 1636.43,384.00 1636.97,384.00C1637.83,384.00 1643.69,387.65 1665.24,401.63C1668.94,404.03 1672.25,406.00 1672.58,406.00C1672.92,406.00 1674.39,406.85 1675.85,407.88C1677.31,408.92 1680.08,410.66 1682.00,411.76C1683.92,412.85 1688.60,415.65 1692.38,417.97C1696.17,420.29 1700.78,423.04 1702.63,424.09C1704.48,425.14 1707.58,426.90 1709.50,428.00C1711.42,429.10 1714.58,430.90 1716.50,432.00C1718.42,433.10 1721.69,434.97 1723.75,436.16C1732.23,441.03 1734.78,441.98 1747.26,444.89C1753.06,446.24 1772.65,446.35 1780.08,445.07C1783.06,444.55 1789.33,443.61 1794.00,442.97C1814.68,440.14 1831.22,434.41 1840.25,426.95C1843.01,424.67 1844.00,423.09 1844.00,420.94C1844.00,418.32 1842.67,417.15 1830.53,409.02C1823.12,404.06 1816.78,400.00 1816.46,400.00C1816.13,400.00 1813.90,398.65 1811.50,397.00C1809.10,395.35 1806.92,394.00 1806.64,394.00C1806.37,394.00 1802.48,391.75 1798.00,389.00C1793.52,386.25 1789.63,384.00 1789.36,384.00C1789.08,384.00 1786.90,382.65 1784.50,381.00C1782.10,379.35 1779.92,378.00 1779.64,378.00C1779.37,378.00 1775.51,375.75 1771.07,373.00C1748.48,359.01 1747.75,358.54 1710.00,334.03C1700.92,328.13 1689.67,320.92 1685.00,318.00C1680.33,315.08 1673.47,310.73 1669.76,308.34C1666.06,305.96 1662.79,304.00 1662.50,304.00C1661.46,304.00 1651.00,296.70 1651.00,295.98C1651.00,295.58 1652.41,294.97 1654.12,294.62C1661.08,293.23 1663.56,293.91 1672.60,299.65C1677.50,302.76 1685.10,307.56 1689.50,310.31C1698.17,315.73 1718.88,329.09 1742.28,344.36C1750.41,349.66 1757.30,354.00 1757.59,354.00C1757.87,354.00 1760.67,355.73 1763.80,357.85C1770.34,362.27 1782.98,370.00 1783.67,370.00C1783.93,370.00 1786.10,371.35 1788.50,373.00C1790.90,374.65 1793.05,376.00 1793.28,376.00C1794.19,376.00 1826.16,395.51 1837.08,402.72C1853.97,413.90 1857.06,419.41 1851.30,428.12C1843.58,439.79 1822.20,448.19 1787.79,453.07C1782.99,453.75 1779.31,454.69 1779.60,455.16C1780.42,456.48 1799.56,456.11 1809.50,454.58C1818.81,453.14 1825.65,451.15 1832.44,447.89C1834.60,446.85 1836.67,446.00 1837.04,446.00C1839.29,446.00 1851.51,437.38 1858.62,430.78C1863.22,426.50 1867.21,423.00 1867.47,423.00C1867.73,423.00 1871.45,424.40 1875.72,426.10C1883.57,429.23 1898.75,434.46 1904.75,436.11C1906.54,436.60 1909.69,437.48 1911.75,438.07C1928.36,442.79 1948.08,446.06 1972.00,448.04C1992.82,449.77 2056.94,451.94 2088.30,451.97L2119.10,452.00L2120.12,449.10C2123.02,440.75 2135.43,419.02 2143.35,408.39C2150.17,399.23 2164.00,384.93 2171.47,379.29C2183.43,370.28 2200.81,364.00 2213.81,364.00C2217.08,364.00 2221.33,363.34 2223.26,362.54C2226.70,361.10 2232.00,355.82 2232.00,353.83C2232.00,353.27 2229.60,350.27 2226.67,347.16C2221.57,341.75 2207.19,326.06 2187.59,304.51C2182.59,299.01 2175.59,291.36 2172.02,287.51C2158.60,272.99 2159.43,274.13 2160.78,271.99C2161.45,270.91 2162.00,268.90 2162.00,267.51C2162.00,264.07 2164.10,264.35 2167.51,268.25C2170.27,271.40 2187.99,290.99 2189.00,292.00C2189.28,292.27 2194.22,297.68 2200.00,304.00C2205.78,310.32 2210.72,315.73 2211.00,316.00C2211.28,316.27 2216.22,321.68 2222.00,328.00C2227.77,334.32 2234.63,341.75 2237.23,344.50C2240.40,347.84 2241.98,350.37 2241.99,352.13C2242.02,358.73 2235.34,368.08 2228.40,371.15C2226.15,372.14 2219.85,373.45 2214.40,374.06C2199.71,375.69 2195.49,376.66 2188.35,380.07C2173.20,387.30 2152.32,409.05 2139.94,430.50C2135.52,438.15 2128.31,452.53 2126.53,457.25L2124.73,462.00L2087.92,462.00C2024.77,462.00 1967.71,459.22 1941.00,454.85C1932.35,453.43 1912.17,448.93 1905.50,446.92C1897.44,444.50 1882.80,439.59 1876.85,437.31L1870.20,434.76L1864.13,439.81C1847.34,453.78 1832.94,460.50 1810.20,464.96C1804.20,466.14 1757.00,466.11 1721.00,464.91zM56.87,440.39C50.06,428.50 43.82,417.59 43.00,416.14C42.17,414.69 39.94,410.80 38.04,407.50C36.13,404.20 34.07,400.60 33.44,399.50C32.82,398.40 31.34,395.81 30.16,393.75C28.97,391.69 27.10,388.43 26.00,386.50C24.90,384.57 23.10,381.43 22.00,379.50C20.90,377.57 19.10,374.43 18.00,372.50C13.05,363.84 12.10,362.19 9.14,357.21C7.41,354.29 5.99,351.59 5.98,351.21C5.97,350.82 5.08,349.38 4.00,348.00C1.27,344.51 1.51,341.91 5.14,335.79C6.87,332.88 9.12,329.04 10.14,327.25C13.77,320.90 15.81,317.39 21.00,308.50C23.89,303.55 27.04,298.15 28.00,296.50C28.96,294.85 32.11,289.45 35.00,284.50C41.55,273.28 42.18,272.20 50.73,257.50C54.56,250.90 60.19,241.22 63.24,236.00L68.78,226.50L84.10,226.22C92.52,226.07 99.96,226.16 100.63,226.41C102.31,227.06 100.26,233.65 98.10,234.60C97.22,234.99 91.36,235.57 85.08,235.90C73.69,236.50 73.65,236.51 71.90,239.50C69.53,243.55 69.59,244.00 72.50,244.00C75.60,244.00 75.65,245.06 72.69,248.67C69.81,252.19 67.18,257.80 66.36,262.17C65.64,266.00 63.13,270.77 47.01,299.00C34.48,320.94 31.42,326.36 26.71,335.00C25.06,338.02 23.32,341.01 22.83,341.63C22.27,342.35 23.79,345.94 26.98,351.46C29.74,356.24 32.00,360.31 32.00,360.50C32.00,360.69 34.41,365.04 37.36,370.17C42.56,379.23 44.73,383.09 50.48,393.50C52.00,396.25 54.04,399.85 55.00,401.50C55.96,403.15 57.88,406.52 59.26,409.00C60.64,411.48 63.06,415.75 64.64,418.50L67.50,423.50L67.76,353.75C67.90,315.39 68.22,284.00 68.47,284.00C68.72,284.00 70.73,285.91 72.94,288.25L76.95,292.50L76.97,367.25L77.00,442.00L73.50,442.00C69.41,442.00 69.23,442.86 72.18,448.11L74.37,452.00L313.18,452.00C471.73,452.00 552.00,452.34 552.00,453.00C552.00,453.55 551.66,454.01 551.25,454.02C550.84,454.04 549.18,455.84 547.56,458.02L544.62,462.00L306.92,462.00L69.23,462.00L56.87,440.39zM712.00,457.00L712.00,452.00L828.62,452.00L945.25,452.00L944.62,455.13C944.28,456.84 944.00,459.09 944.00,460.13C944.00,461.95 940.76,462.00 828.00,462.00L712.00,462.00L712.00,457.00zM1274.50,458.84C1194.59,457.92 1184.40,457.23 1156.00,450.88C1140.04,447.31 1134.97,445.26 1129.53,440.17C1119.58,430.85 1105.11,424.00 1095.40,424.00C1092.98,424.00 1091.00,423.72 1091.00,423.37C1091.00,422.05 1095.20,416.00 1096.12,416.00C1096.64,416.00 1098.22,416.75 1099.63,417.67C1106.73,422.33 1126.07,432.00 1128.27,432.00C1129.00,432.00 1130.03,432.38 1130.55,432.84C1131.37,433.57 1134.93,434.71 1149.50,438.91C1160.67,442.12 1179.34,445.41 1195.00,446.91C1200.78,447.47 1240.83,448.21 1284.00,448.57C1361.83,449.21 1370.73,449.39 1371.70,450.37C1372.15,450.82 1367.45,455.38 1363.09,458.72C1362.07,459.50 1358.25,459.88 1352.50,459.79C1347.55,459.71 1312.45,459.28 1274.50,458.84zM2105.41,440.32C2102.71,438.90 2099.31,436.89 2097.85,435.86C2096.39,434.84 2094.92,434.00 2094.58,434.00C2094.24,434.00 2091.00,432.20 2087.38,430.00C2083.76,427.80 2080.67,426.00 2080.51,426.00C2080.35,426.00 2074.27,422.40 2067.00,418.00C2059.73,413.60 2053.60,410.00 2053.38,410.00C2053.16,410.00 2049.94,408.04 2046.24,405.65C2042.53,403.26 2035.95,399.10 2031.60,396.40C2014.44,385.75 1948.51,341.39 1925.87,325.25C1921.81,322.37 1915.49,317.87 1911.82,315.25C1891.66,300.90 1886.00,296.66 1886.00,295.87C1886.00,295.39 1888.82,295.00 1892.26,295.00C1897.79,295.00 1899.15,295.42 1903.86,298.59C1906.79,300.56 1909.93,302.81 1910.84,303.59C1911.75,304.36 1914.75,306.57 1917.50,308.50C1920.25,310.43 1925.65,314.25 1929.50,316.99C1945.29,328.25 1970.09,345.18 1996.61,362.81C2023.26,380.53 2033.35,387.05 2049.50,396.99C2053.35,399.37 2058.86,402.81 2061.73,404.65C2064.61,406.49 2067.24,408.00 2067.58,408.00C2067.92,408.00 2069.39,408.85 2070.85,409.88C2072.31,410.92 2075.19,412.72 2077.25,413.88C2081.97,416.55 2085.06,418.33 2097.43,425.51L2107.37,431.27L2109.68,428.39C2110.95,426.80 2111.99,425.20 2112.00,424.82C2112.00,424.45 2114.25,420.48 2117.00,416.00C2119.75,411.52 2122.00,407.64 2122.00,407.38C2122.00,407.12 2124.30,403.44 2127.12,399.20C2130.20,394.56 2137.78,386.02 2146.20,377.70L2160.17,363.91L2154.42,356.20C2142.39,340.11 2115.98,315.94 2095.75,302.51C2090.94,299.31 2087.00,296.32 2087.00,295.85C2087.00,295.38 2090.04,295.00 2093.76,295.00C2102.15,295.00 2103.70,295.91 2123.99,312.66C2140.81,326.55 2153.28,339.91 2168.55,360.38L2172.19,365.27L2161.34,375.34C2144.50,391.00 2136.01,400.63 2131.00,409.76C2127.27,416.56 2111.73,442.05 2111.06,442.46C2110.66,442.71 2108.12,441.75 2105.41,440.32zM1379.50,440.37C1369.84,439.29 1359.10,437.72 1356.50,437.00C1340.76,432.64 1329.77,428.64 1312.00,420.79C1308.97,419.45 1304.92,417.73 1303.00,416.96C1299.12,415.42 1271.77,401.60 1265.50,398.01C1261.71,395.84 1258.61,394.11 1248.75,388.65C1243.04,385.49 1225.38,374.91 1218.81,370.71C1215.89,368.84 1209.67,364.92 1205.00,361.98C1200.33,359.05 1172.10,340.48 1142.28,320.71C1092.76,287.88 1087.89,284.41 1086.06,280.62C1084.30,276.99 1084.20,275.97 1085.25,272.54C1086.74,267.69 1091.27,263.03 1097.23,260.23C1103.47,257.30 1114.99,253.66 1115.72,254.39C1116.05,254.72 1115.80,256.14 1115.16,257.54C1114.52,258.95 1114.00,260.87 1114.00,261.83C1114.00,263.04 1112.56,263.99 1109.25,264.95C1100.15,267.62 1094.00,271.93 1094.00,275.65C1094.00,277.62 1100.87,282.57 1137.75,307.17C1200.43,348.97 1233.07,369.82 1253.00,380.77C1255.47,382.13 1258.85,384.04 1260.50,385.00C1271.32,391.32 1300.48,406.34 1307.00,408.95C1308.92,409.72 1312.97,411.45 1316.00,412.79C1335.22,421.28 1347.87,425.76 1361.50,428.89C1365.93,429.91 1380.33,431.63 1392.26,432.56C1396.52,432.90 1399.79,433.53 1399.52,433.96C1398.55,435.54 1386.77,441.00 1384.66,440.85C1383.47,440.77 1381.15,440.55 1379.50,440.37zM949.00,438.93C947.62,438.47 942.00,436.70 936.50,435.01C931.00,433.32 925.60,431.55 924.50,431.06C923.40,430.58 917.10,428.07 910.50,425.50C903.90,422.92 896.48,419.90 894.00,418.78C877.37,411.26 849.67,397.61 833.00,388.73C811.08,377.04 811.31,377.17 796.00,368.01C759.00,345.88 708.49,307.50 703.80,297.96C701.17,292.62 701.53,287.13 704.84,281.91C707.47,277.76 715.44,270.00 717.06,270.00C717.45,270.00 718.96,271.58 720.43,273.50L723.11,277.01L720.30,279.47C718.76,280.83 717.18,281.95 716.79,281.97C715.62,282.02 711.00,289.33 711.00,291.13C711.00,294.79 732.92,313.33 762.50,334.68C775.52,344.08 798.92,358.73 816.75,368.64C819.09,369.94 823.14,372.20 825.75,373.67C832.75,377.61 885.54,404.03 893.05,407.35C904.50,412.42 905.35,412.78 916.00,417.01C926.71,421.27 941.75,426.32 954.75,430.02C958.74,431.16 961.99,432.40 961.97,432.79C961.96,433.18 960.16,434.60 957.97,435.95C955.79,437.30 954.00,438.76 954.00,439.20C954.00,440.17 952.35,440.08 949.00,438.93zM1049.43,431.42C1049.95,429.36 1049.67,428.73 1048.04,428.30C1045.62,427.67 1045.31,426.00 1047.60,426.00C1048.48,426.00 1052.99,424.20 1057.62,422.00C1062.25,419.80 1066.48,418.00 1067.02,418.00C1070.28,418.00 1065.20,413.51 1056.00,408.24C1051.04,405.41 1027.53,391.05 1021.12,386.95C1006.81,377.78 960.58,347.06 953.50,342.02C949.10,338.88 940.18,332.53 933.68,327.91C927.18,323.28 919.69,317.93 917.05,316.00C914.40,314.07 910.04,310.95 907.37,309.06C904.69,307.16 894.85,299.93 885.50,292.98C876.15,286.04 867.26,279.55 865.75,278.56C864.24,277.58 863.00,276.35 863.00,275.84C863.00,274.58 868.20,270.07 869.70,270.03C870.36,270.01 876.46,274.16 883.25,279.25C890.05,284.34 900.27,291.88 905.97,296.00C911.66,300.12 918.16,304.87 920.41,306.55C922.66,308.22 927.20,311.48 930.50,313.79C933.80,316.09 940.55,320.86 945.50,324.38C972.10,343.30 1032.68,383.09 1051.50,393.99C1070.23,404.85 1078.00,411.04 1078.00,415.12C1078.00,420.47 1072.95,425.11 1063.33,428.60C1059.68,429.92 1055.35,431.68 1053.70,432.50C1049.50,434.60 1048.69,434.39 1049.43,431.42zM1474.95,426.95C1474.15,426.44 1472.47,426.02 1471.21,426.02C1469.95,426.01 1464.91,423.30 1460.00,420.00C1455.09,416.70 1450.80,414.00 1450.47,414.00C1450.13,414.00 1447.90,412.65 1445.50,411.00C1443.10,409.35 1440.88,408.00 1440.55,408.00C1440.23,408.00 1437.61,406.50 1434.73,404.66C1412.45,390.46 1404.18,385.12 1387.50,374.20C1377.05,367.36 1364.00,358.59 1358.50,354.70C1353.00,350.82 1344.00,344.48 1338.50,340.62C1326.86,332.45 1319.21,326.99 1309.59,319.99C1302.14,314.57 1302.92,314.70 1291.00,316.98C1288.53,317.46 1283.58,318.37 1280.00,319.01C1262.77,322.09 1253.82,325.13 1250.03,329.20C1246.71,332.76 1247.29,339.08 1251.50,345.43C1255.74,351.82 1269.76,366.06 1279.99,374.36C1284.12,377.71 1288.14,381.07 1288.92,381.83C1289.71,382.59 1295.89,387.49 1302.67,392.73C1309.45,397.97 1315.00,402.42 1315.00,402.61C1315.00,403.23 1310.02,401.07 1304.72,398.14C1301.85,396.56 1294.29,392.55 1287.93,389.24C1271.87,380.90 1262.96,376.01 1259.85,373.85C1258.39,372.83 1256.89,372.00 1256.53,372.00C1256.16,372.00 1253.90,370.65 1251.50,369.00C1249.10,367.35 1246.86,366.00 1246.51,366.00C1246.17,366.00 1243.10,364.11 1239.70,361.80C1213.29,343.89 1206.10,333.57 1211.98,322.04C1214.99,316.13 1219.32,313.75 1232.00,311.02C1234.47,310.49 1249.44,310.04 1265.25,310.02C1281.06,310.01 1293.97,309.66 1293.94,309.25C1293.90,308.84 1289.52,305.31 1284.19,301.40C1278.86,297.50 1266.77,288.59 1257.32,281.61L1240.14,268.92L1240.70,265.21C1241.01,263.17 1241.62,261.10 1242.06,260.62C1242.50,260.13 1250.26,265.29 1259.29,272.09C1274.41,283.45 1275.91,284.86 1278.00,289.72L1280.28,295.00L1285.00,295.00C1290.50,295.00 1290.52,295.01 1324.97,320.00C1349.24,337.61 1408.08,378.00 1409.46,378.00C1409.80,378.00 1414.00,380.63 1418.79,383.85C1426.74,389.19 1436.81,395.51 1444.50,400.00C1467.61,413.49 1478.00,421.49 1478.00,425.79C1478.00,427.44 1476.58,427.98 1474.95,426.95zM895.00,402.95C894.17,402.44 890.80,400.85 887.50,399.41C869.21,391.41 838.43,376.12 828.65,370.17C824.88,367.88 821.60,366.00 821.36,366.00C820.02,366.00 802.52,353.41 797.52,348.86C785.71,338.08 783.10,329.98 789.08,322.71C795.61,314.80 810.44,310.91 839.42,309.51C853.91,308.81 893.00,309.91 893.00,311.01C893.00,311.41 887.71,312.71 881.25,313.92C874.79,315.12 867.48,316.50 865.00,316.98C862.52,317.46 857.58,318.37 854.00,319.02C850.42,319.66 846.38,320.54 845.00,320.97C843.62,321.40 839.16,322.81 835.08,324.10C826.48,326.82 821.00,331.22 821.00,335.40C821.00,345.62 833.94,357.54 880.82,390.50C890.21,397.10 897.91,402.84 897.94,403.25C898.02,404.23 896.87,404.11 895.00,402.95zM2046.00,385.82C2042.42,383.58 2038.15,380.96 2036.50,380.00C2015.25,367.62 1990.58,349.66 1982.41,340.63C1975.06,332.52 1973.50,329.04 1973.50,320.82C1973.50,314.81 1973.79,313.83 1976.39,311.11C1982.87,304.35 1993.61,301.57 2018.00,300.35C2034.90,299.50 2065.00,302.46 2065.00,304.96C2065.00,305.38 2062.19,306.01 2058.75,306.35C2051.23,307.11 2046.01,308.17 2031.80,311.82C2025.57,313.42 2015.46,318.59 2012.66,321.61C2007.34,327.35 2009.95,337.47 2020.25,351.12C2024.89,357.27 2036.39,370.46 2049.74,384.98C2051.52,386.91 2052.99,388.84 2052.99,389.25C2053.00,390.25 2053.38,390.43 2046.00,385.82zM1635.00,381.00C1635.00,380.45 1634.55,380.00 1634.00,380.00C1633.45,380.00 1633.00,380.45 1633.00,381.00C1633.00,381.55 1633.45,382.00 1634.00,382.00C1634.55,382.00 1635.00,381.55 1635.00,381.00zM1632.00,379.56C1632.00,379.32 1631.55,378.84 1631.00,378.50C1630.45,378.16 1630.00,378.36 1630.00,378.94C1630.00,379.52 1630.45,380.00 1631.00,380.00C1631.55,380.00 1632.00,379.80 1632.00,379.56zM2189.39,352.58C2181.55,350.69 2173.21,345.68 2159.00,334.30C2158.18,333.64 2147.27,324.92 2134.77,314.92C2122.27,304.92 2112.28,296.35 2112.58,295.87C2112.88,295.39 2115.31,295.00 2117.98,295.00C2123.70,295.00 2124.72,295.71 2164.84,327.55C2181.86,341.07 2185.58,343.48 2191.80,345.06C2196.48,346.25 2197.41,346.21 2199.80,344.77C2205.28,341.47 2203.58,337.22 2191.09,323.00C2186.98,318.32 2176.69,307.75 2168.22,299.49L2152.82,284.48L2155.66,281.25L2158.50,278.02L2173.05,292.26C2189.19,308.05 2204.50,325.69 2208.04,332.58C2209.51,335.43 2210.38,338.93 2210.43,342.13C2210.49,346.56 2210.14,347.48 2207.58,349.51C2205.98,350.79 2203.06,352.12 2201.08,352.47C2199.11,352.82 2196.82,353.26 2196.00,353.46C2195.18,353.65 2192.20,353.26 2189.39,352.58zM2069.45,287.17C2065.58,285.15 2060.51,282.68 2058.20,281.68C2055.89,280.68 2054.00,279.30 2054.00,278.63C2054.00,276.66 2056.41,272.02 2057.44,272.01C2057.95,272.00 2062.29,273.87 2067.08,276.15C2074.80,279.82 2075.85,280.65 2076.35,283.40C2076.67,285.10 2077.22,287.51 2077.58,288.75C2078.42,291.66 2077.87,291.55 2069.45,287.17zM363.50,286.51C347.45,283.17 334.78,276.25 324.19,265.06C302.58,242.22 296.63,211.44 306.48,173.50C308.97,163.90 311.01,158.80 317.57,145.71C331.50,117.93 361.79,91.55 390.50,82.18C403.54,77.93 406.42,77.50 421.50,77.53C434.57,77.56 437.46,77.87 444.00,79.98C468.40,87.84 487.02,107.29 494.78,133.00C499.80,149.66 498.47,176.15 491.52,197.50C487.90,208.65 478.96,226.27 472.77,234.48C443.70,273.00 399.55,294.02 363.50,286.51zM771.95,286.46C743.71,280.82 721.14,258.96 713.15,229.50C708.64,212.90 710.39,187.95 717.59,166.24C725.27,143.05 740.34,120.83 758.37,106.11C771.29,95.57 779.01,90.88 796.50,82.95C797.60,82.45 802.10,81.05 806.50,79.83C813.12,78.00 817.18,77.61 830.00,77.57C843.63,77.53 846.34,77.81 852.48,79.85C863.95,83.67 868.97,86.40 877.50,93.47C885.19,99.84 887.12,101.98 892.88,110.50C899.45,120.20 900.72,123.05 904.69,137.00C906.62,143.77 906.89,168.66 905.13,177.50C899.69,204.82 891.82,222.08 875.92,241.50C848.28,275.27 806.46,293.35 771.95,286.46zM1412.00,284.03C1394.42,280.74 1378.85,271.35 1367.31,257.09C1362.40,251.02 1355.83,239.17 1353.90,232.91C1348.62,215.74 1348.68,192.65 1354.05,172.50C1356.40,163.65 1356.83,162.29 1358.94,157.00C1366.09,139.07 1374.85,125.95 1389.40,111.40C1421.77,79.03 1461.01,66.84 1495.33,78.50C1500.39,80.21 1509.97,85.22 1513.31,87.88C1536.12,106.10 1547.36,130.88 1545.64,159.12C1543.26,198.07 1528.44,229.21 1500.72,253.50C1496.95,256.80 1493.34,259.97 1492.68,260.55C1489.45,263.44 1478.15,270.50 1471.25,273.95C1463.52,277.82 1457.98,279.93 1448.50,282.61C1442.57,284.29 1418.41,285.23 1412.00,284.03zM91.69,282.08C83.15,280.33 78.68,273.40 80.84,265.29C83.52,255.27 90.68,250.35 104.05,249.32C112.79,248.64 112.43,248.96 113.94,240.29C114.40,237.66 116.22,228.53 118.00,220.00C119.78,211.47 121.67,202.25 122.20,199.50C122.74,196.75 123.54,192.70 124.00,190.50C124.45,188.30 125.35,183.80 126.00,180.50C126.65,177.20 127.55,172.70 128.00,170.50C128.45,168.30 129.29,164.03 129.88,161.00C130.47,157.97 132.71,146.95 134.86,136.50C137.02,126.05 138.58,117.16 138.33,116.75C138.08,116.34 135.55,115.99 132.69,115.98C117.44,115.94 110.36,106.73 116.12,94.46C118.76,88.86 123.89,84.52 129.56,83.09C132.24,82.41 146.41,82.00 166.86,82.00C197.27,82.00 200.19,82.15 204.36,83.94C211.95,87.19 214.05,94.65 209.89,103.52C205.70,112.43 197.76,116.00 182.10,116.00C177.09,116.00 173.00,116.19 173.00,116.43C173.00,116.66 172.05,121.50 170.89,127.18C169.73,132.85 168.34,139.75 167.80,142.50C167.26,145.25 166.41,149.53 165.90,152.00C165.39,154.47 164.68,158.51 164.33,160.97L163.69,165.43L166.60,163.58C168.19,162.56 173.78,158.55 179.00,154.68C184.22,150.81 190.86,145.92 193.75,143.82C204.50,136.00 209.74,132.16 219.00,125.33C224.22,121.48 229.51,117.69 230.75,116.92C233.59,115.15 233.56,114.61 230.50,110.59C227.56,106.73 227.06,98.72 229.47,94.05C231.56,90.01 238.30,84.53 242.86,83.16C248.17,81.57 293.87,81.58 299.19,83.18C305.09,84.94 308.00,88.99 308.00,95.42C308.00,98.32 307.30,102.10 306.44,103.82C303.14,110.44 293.56,116.00 285.46,116.00C283.83,116.00 277.94,119.72 268.72,126.57C260.90,132.39 253.38,137.98 252.00,139.00C250.62,140.02 244.56,144.53 238.51,149.02C226.59,157.88 214.09,167.12 212.64,168.14C212.14,168.49 215.34,172.32 219.75,176.64C224.16,180.96 229.98,187.88 232.69,192.00C237.71,199.66 244.00,212.08 244.00,214.34C244.00,215.04 244.37,216.03 244.83,216.55C245.28,217.07 246.17,219.30 246.81,221.50C247.45,223.70 248.88,228.39 249.99,231.92C251.09,235.44 252.00,239.04 252.01,239.92C252.01,240.79 252.48,243.19 253.05,245.25L254.09,249.00L259.91,249.00C270.61,249.00 274.90,250.04 278.59,253.52C281.72,256.47 282.00,257.22 282.00,262.62C281.99,271.09 278.18,276.83 270.00,280.68C265.00,283.03 226.14,283.31 224.97,281.00C224.56,280.18 223.23,275.23 222.02,270.00C219.52,259.20 219.58,259.41 213.44,240.50C207.07,220.90 202.92,212.94 194.93,205.01C188.87,199.01 181.46,193.99 178.66,194.00C178.02,194.01 175.25,195.71 172.50,197.79C169.75,199.87 165.47,203.00 163.00,204.75C153.75,211.28 154.13,210.66 151.45,223.52C148.73,236.53 147.01,245.85 147.01,247.62C147.00,248.35 150.74,248.90 157.75,249.20C169.40,249.69 173.50,251.06 176.35,255.41C179.69,260.51 177.57,271.52 172.36,276.15C171.34,277.06 168.70,278.84 166.50,280.12C162.55,282.42 162.07,282.45 129.00,282.65C110.57,282.77 93.78,282.51 91.69,282.08zM567.55,282.08C567.23,281.57 566.49,278.76 565.89,275.83C564.85,270.72 563.72,265.53 562.01,258.00C561.57,256.07 560.22,249.78 559.00,244.00C556.80,233.57 555.53,227.72 554.01,221.00C553.57,219.07 552.22,212.78 551.00,207.00C548.80,196.57 547.53,190.72 546.01,184.00C545.57,182.07 544.22,175.78 543.00,170.00C540.62,158.74 540.41,157.73 537.04,142.50C535.82,137.00 534.07,128.90 533.14,124.50L531.44,116.50L525.96,115.82C522.94,115.44 519.24,114.66 517.74,114.09C508.12,110.43 509.25,93.00 519.53,86.25C525.74,82.19 529.07,81.86 561.50,82.19C588.92,82.46 592.92,82.71 596.11,84.30C600.76,86.62 602.53,90.06 602.37,96.53C602.09,108.37 591.61,116.00 575.63,116.00C568.34,116.00 568.51,115.79 570.05,123.00C570.58,125.47 571.43,129.53 571.94,132.00C572.46,134.47 573.81,140.78 574.96,146.00C576.10,151.22 577.45,157.53 577.95,160.00C578.91,164.67 582.63,181.89 584.00,188.00C584.43,189.93 585.78,196.22 587.00,202.00C588.22,207.78 589.57,214.07 590.01,216.00C591.02,220.48 593.00,230.16 593.00,230.64C593.00,230.84 593.58,231.00 594.28,231.00C594.99,231.00 596.40,229.54 597.41,227.75C599.30,224.43 603.68,217.29 612.02,204.00C628.44,177.83 634.48,168.13 636.08,165.32C637.07,163.57 639.42,159.74 641.29,156.82C643.16,153.89 647.08,147.68 650.00,143.00C652.92,138.32 656.84,132.11 658.71,129.18C662.58,123.13 666.00,117.16 666.00,116.47C666.00,116.21 663.16,116.00 659.68,116.00C656.20,116.00 651.25,115.28 648.68,114.41C642.41,112.27 640.00,108.77 640.00,101.79C640.00,93.92 644.12,87.72 651.55,84.44C656.99,82.03 657.40,82.00 687.66,82.00C719.77,82.00 724.31,82.50 727.83,86.40C735.89,95.33 728.59,111.71 715.17,114.78C712.24,115.45 708.54,116.00 706.94,116.00C704.66,116.00 703.52,116.81 701.68,119.75C700.38,121.81 696.93,127.33 694.01,132.00C691.08,136.68 686.73,143.53 684.34,147.24C681.96,150.94 680.00,154.21 680.00,154.50C680.00,154.79 678.04,158.06 675.66,161.76C671.12,168.80 664.34,179.61 657.00,191.50C654.62,195.35 650.57,201.88 648.00,206.00C645.43,210.12 641.38,216.65 639.00,220.50C634.47,227.84 628.72,237.08 620.32,250.50C617.57,254.90 613.38,261.65 611.01,265.50C608.63,269.35 605.18,274.86 603.34,277.75L599.98,283.00L584.05,283.00C575.29,283.00 567.86,282.58 567.55,282.08zM1137.62,278.97C1127.84,276.04 1125.72,263.99 1133.32,254.47C1137.27,249.52 1146.40,246.00 1155.31,246.00C1157.82,246.00 1160.16,245.56 1160.49,245.01C1160.83,244.47 1161.57,241.43 1162.14,238.26C1163.61,230.16 1164.01,228.16 1171.00,194.00C1174.43,177.22 1177.58,161.70 1177.99,159.50C1178.40,157.30 1179.44,152.12 1180.28,148.00C1181.13,143.88 1182.04,139.38 1182.30,138.00C1182.56,136.62 1183.74,130.81 1184.91,125.07C1187.33,113.22 1187.26,113.04 1180.00,113.01C1170.33,112.96 1165.15,110.00 1162.92,103.25C1161.37,98.56 1163.23,92.25 1167.72,87.01C1174.39,79.22 1172.09,79.49 1230.00,79.55C1279.80,79.59 1281.78,79.67 1290.00,81.80C1310.56,87.14 1322.00,97.11 1329.07,115.86C1329.80,117.81 1330.31,123.47 1330.28,129.36C1330.21,141.46 1327.54,150.47 1321.04,160.44C1315.17,169.45 1303.23,180.59 1293.75,185.90C1284.20,191.25 1282.47,192.24 1282.09,192.60C1281.87,192.81 1283.95,195.59 1286.72,198.77C1294.06,207.21 1301.00,218.29 1308.11,232.91L1314.38,245.82L1319.94,246.46C1328.59,247.47 1331.71,248.80 1333.96,252.43C1339.49,261.38 1332.66,275.39 1321.08,278.86C1318.98,279.49 1311.17,280.00 1303.72,280.00L1290.18,280.00L1282.93,265.25C1268.85,236.61 1256.33,218.42 1243.52,208.04L1238.54,204.00L1220.79,204.00C1203.18,204.00 1203.03,204.02 1202.61,206.25C1202.17,208.54 1200.60,216.52 1198.82,225.50C1198.27,228.25 1197.45,232.07 1197.00,234.00C1196.54,235.93 1195.87,239.41 1195.50,241.75L1194.82,246.00L1202.34,246.00C1212.68,246.00 1219.60,247.76 1223.12,251.28C1225.62,253.78 1226.00,254.91 1226.00,259.88C1226.00,264.50 1225.43,266.51 1223.07,270.23C1220.05,274.99 1218.06,276.52 1212.00,278.71C1207.91,280.18 1142.45,280.41 1137.62,278.97zM1561.06,278.60C1555.78,276.70 1553.49,272.91 1553.54,266.17C1553.61,254.02 1564.36,246.00 1580.56,246.00C1584.33,246.00 1585.02,245.68 1585.39,243.75C1587.18,234.45 1588.29,228.94 1589.08,225.50C1589.84,222.20 1601.31,165.43 1604.03,151.50C1605.21,145.50 1607.08,136.01 1607.99,131.50C1608.43,129.30 1609.32,124.87 1609.96,121.65C1610.61,118.43 1610.92,115.24 1610.66,114.55C1610.36,113.78 1607.26,113.08 1602.53,112.72C1590.07,111.78 1585.74,106.90 1587.42,95.68C1588.25,90.17 1592.58,84.88 1598.75,81.84L1603.50,79.50L1654.00,79.50C1707.62,79.50 1710.62,79.73 1723.27,84.69C1737.04,90.09 1748.30,102.46 1753.14,117.50C1755.29,124.18 1754.76,141.30 1752.15,149.50C1749.02,159.33 1744.63,167.74 1739.05,174.64C1734.00,180.89 1722.83,190.45 1716.36,194.07C1714.24,195.26 1711.38,197.00 1710.00,197.94C1706.03,200.66 1694.99,205.65 1689.00,207.44C1680.14,210.08 1670.45,210.93 1648.00,211.04C1627.32,211.14 1626.87,211.19 1625.94,213.32C1624.65,216.27 1619.17,244.31 1619.70,245.25C1619.93,245.66 1628.56,246.00 1638.88,246.00C1664.62,246.00 1670.83,248.05 1672.50,257.09C1674.09,265.70 1667.31,276.09 1658.35,278.78C1652.51,280.53 1565.95,280.37 1561.06,278.60zM1736.63,277.99C1731.23,275.29 1730.07,273.34 1730.03,266.90C1729.96,254.88 1737.03,248.45 1752.86,246.14L1757.22,245.50L1765.73,231.50C1770.41,223.80 1779.54,208.72 1786.01,198.00C1792.48,187.28 1802.82,170.18 1809.00,160.00C1815.18,149.82 1822.94,137.00 1826.24,131.50C1829.54,126.00 1833.13,120.25 1834.22,118.71C1837.66,113.84 1836.52,113.33 1821.84,113.12C1814.50,113.01 1806.87,112.49 1804.88,111.96C1800.00,110.66 1796.03,106.52 1795.89,102.61C1795.60,93.97 1796.95,90.02 1801.76,85.47C1807.92,79.65 1808.06,79.63 1851.36,79.22C1873.28,79.01 1892.24,79.09 1893.48,79.41C1895.13,79.82 1895.93,80.98 1896.45,83.74C1897.80,90.76 1898.75,95.47 1903.00,116.00C1905.33,127.28 1907.59,138.30 1908.01,140.50C1908.43,142.70 1909.33,146.97 1910.00,150.00C1911.34,156.06 1911.87,158.65 1915.97,179.50C1916.41,181.70 1918.67,192.72 1921.00,204.00C1925.83,227.37 1926.41,230.24 1927.88,238.43C1928.47,241.69 1929.30,244.70 1929.73,245.12C1930.15,245.54 1933.42,246.34 1937.00,246.90C1942.59,247.78 1943.94,248.42 1946.64,251.50C1949.28,254.51 1949.99,254.86 1951.14,253.72C1955.59,249.28 1964.87,246.03 1973.13,246.01C1977.12,246.00 1977.84,245.69 1978.27,243.75C1978.85,241.12 1990.87,182.38 1992.03,176.50C1992.46,174.30 1993.35,169.80 1994.00,166.50C1994.65,163.20 1995.54,158.70 1995.97,156.50C1996.40,154.30 1998.43,144.29 2000.48,134.25C2002.54,124.22 2003.96,115.33 2003.64,114.50C2003.25,113.49 2001.66,113.00 1998.78,112.99C1990.64,112.97 1986.90,111.83 1983.38,108.32C1980.38,105.31 1980.00,104.33 1980.00,99.58C1980.00,92.37 1984.39,85.68 1991.50,82.05L1996.50,79.50L2032.00,79.50C2071.47,79.50 2071.94,79.57 2076.04,86.30C2079.19,91.46 2078.20,98.17 2073.30,104.76C2069.20,110.29 2063.95,112.26 2052.00,112.79C2046.22,113.04 2040.82,113.60 2039.98,114.03C2039.06,114.51 2037.95,117.68 2037.15,122.16C2036.43,126.20 2035.46,131.07 2034.99,133.00C2034.52,134.93 2033.62,139.20 2032.99,142.50C2032.36,145.80 2031.45,150.30 2030.98,152.50C2030.50,154.70 2029.85,157.74 2029.54,159.25C2028.76,162.96 2030.07,162.75 2036.29,158.17C2050.38,147.82 2076.75,128.53 2089.00,119.62C2100.11,111.53 2099.48,112.50 2096.32,108.35C2089.92,99.97 2094.66,86.45 2105.81,81.26C2109.01,79.77 2113.10,79.54 2136.50,79.52C2163.11,79.50 2163.56,79.53 2167.65,81.88C2172.37,84.58 2174.00,87.42 2174.00,92.92C2174.00,98.10 2171.84,102.88 2167.83,106.55C2163.56,110.46 2160.84,111.69 2153.67,112.94C2148.63,113.82 2146.28,115.12 2136.42,122.48C2130.14,127.17 2119.71,134.91 2113.25,139.69C2086.17,159.71 2079.05,165.10 2078.47,166.05C2078.13,166.60 2081.23,170.20 2085.36,174.06C2099.71,187.46 2111.52,210.19 2117.04,235.00C2119.49,246.06 2119.05,245.47 2125.08,245.74C2141.02,246.45 2148.00,250.61 2148.00,259.41C2148.00,267.40 2143.82,273.87 2136.21,277.66C2132.96,279.27 2129.90,279.50 2111.62,279.50L2090.75,279.50L2087.37,266.05C2085.51,258.65 2083.08,249.88 2081.97,246.55C2080.86,243.22 2079.48,238.93 2078.91,237.00C2074.75,223.15 2068.11,209.93 2062.16,203.62C2057.67,198.86 2047.39,192.00 2044.75,192.00C2042.35,192.00 2020.43,207.46 2019.51,209.80C2019.14,210.73 2018.38,213.97 2017.83,217.00C2017.27,220.03 2016.45,224.30 2016.00,226.50C2015.55,228.70 2014.71,232.97 2014.13,236.00C2013.54,239.03 2012.79,242.45 2012.45,243.62C2011.86,245.65 2012.22,245.75 2022.17,246.22C2028.33,246.51 2034.00,247.34 2036.23,248.29C2049.12,253.79 2044.74,273.27 2029.41,278.61C2026.41,279.65 2017.53,279.97 1991.37,279.98C1954.20,280.00 1952.16,279.74 1948.25,274.37L1946.29,271.67L1942.39,274.71C1940.25,276.39 1936.97,278.26 1935.10,278.88C1930.14,280.52 1870.68,280.27 1866.00,278.59C1854.94,274.63 1855.64,258.07 1867.19,250.59C1871.07,248.08 1879.61,246.03 1886.25,246.01C1891.96,246.00 1892.00,245.98 1892.00,243.01C1892.00,241.37 1891.56,238.11 1891.02,235.76C1890.47,233.42 1889.79,230.26 1889.50,228.75L1888.96,226.00L1847.50,226.00L1806.03,226.00L1803.35,230.25C1801.88,232.59 1799.17,236.86 1797.34,239.73C1795.50,242.61 1794.00,245.14 1794.00,245.36C1794.00,245.57 1797.75,245.95 1802.33,246.19C1813.32,246.76 1817.80,249.01 1820.39,255.24C1822.11,259.37 1822.15,260.24 1820.89,264.64C1819.02,271.17 1813.09,277.08 1806.74,278.75C1803.40,279.62 1792.73,279.99 1771.24,279.96C1742.92,279.92 1740.20,279.77 1736.63,277.99zM2066.40,264.17C2060.17,259.64 2059.51,258.39 2059.50,251.10C2059.50,245.04 2061.47,238.00 2063.17,238.00C2063.55,238.00 2064.85,241.26 2066.07,245.25C2067.28,249.24 2069.11,255.16 2070.14,258.42C2073.16,268.03 2072.70,268.74 2066.40,264.17zM1057.00,264.32C1053.97,263.52 1049.92,262.51 1048.00,262.07C1044.23,261.20 1029.77,256.47 1026.50,255.04C1025.40,254.56 1016.05,250.08 1005.73,245.08L986.96,236.00L943.48,236.00C918.19,236.00 900.00,235.62 900.00,235.09C900.00,234.60 900.98,232.35 902.19,230.09L904.37,226.00L946.80,226.00L989.23,226.00L1015.36,238.87C1029.74,245.94 1043.53,252.30 1046.00,252.98C1048.47,253.67 1051.80,254.63 1053.40,255.12C1054.99,255.60 1060.30,256.00 1065.18,256.00C1076.38,256.00 1081.48,254.33 1101.37,244.16C1112.09,238.68 1118.43,236.08 1123.12,235.22C1134.16,233.19 1138.52,233.95 1132.09,236.80C1130.49,237.51 1127.23,239.77 1124.84,241.83C1118.01,247.72 1092.40,260.17 1078.00,264.60C1072.37,266.32 1064.16,266.22 1057.00,264.32zM1516.00,260.62C1516.00,260.33 1517.73,258.22 1519.83,255.93C1523.55,251.91 1523.93,251.76 1532.01,250.94C1536.60,250.48 1540.69,250.31 1541.09,250.56C1542.55,251.46 1538.73,259.03 1536.59,259.47C1532.87,260.22 1516.00,261.17 1516.00,260.62zM1839.00,259.71C1837.19,258.80 1836.41,257.49 1836.17,254.98C1835.99,253.07 1835.35,250.92 1834.76,250.21C1832.49,247.48 1835.59,247.17 1840.86,249.61C1845.53,251.76 1846.13,252.36 1845.53,254.29C1845.15,255.51 1844.60,257.51 1844.30,258.75C1843.69,261.31 1842.57,261.51 1839.00,259.71zM397.00,252.57C407.11,250.08 413.08,247.37 422.42,241.02C435.57,232.10 447.40,218.37 453.91,204.50C460.53,190.38 462.33,182.25 462.41,166.00C462.49,151.48 461.95,148.82 456.74,138.00C452.45,129.08 442.67,119.38 433.50,114.93C426.73,111.64 426.11,111.53 414.50,111.54C402.11,111.55 395.08,113.18 386.40,118.05C384.68,119.02 382.20,120.42 380.89,121.16C379.57,121.90 378.27,122.73 378.00,123.00C377.73,123.28 374.99,125.41 371.93,127.74C352.57,142.44 340.21,165.27 337.14,192.00C332.69,230.69 362.69,261.03 397.00,252.57zM804.20,252.94C818.21,250.12 831.97,242.38 844.10,230.49C858.44,216.42 866.56,200.94 870.55,180.06C876.05,151.34 864.97,125.88 842.14,114.76C835.78,111.67 835.00,111.53 823.50,111.54C813.41,111.55 810.48,111.93 805.09,113.90C780.41,122.93 759.23,144.82 750.66,170.16C744.97,186.99 744.26,208.24 748.99,220.50C753.48,232.15 763.65,244.21 772.69,248.64C782.88,253.62 793.54,255.08 804.20,252.94zM1451.00,248.45C1466.24,243.03 1483.12,230.36 1493.26,216.73C1498.62,209.53 1505.50,194.59 1508.10,184.50C1511.35,171.90 1511.44,153.39 1508.30,143.99C1505.20,134.71 1501.49,128.54 1495.08,122.05C1478.52,105.26 1453.92,103.65 1430.26,117.80C1404.71,133.09 1389.12,157.72 1385.03,189.25C1381.29,218.06 1398.82,245.56 1424.00,250.39C1428.81,251.31 1446.53,250.03 1451.00,248.45zM1229.50,237.01C1227.85,235.92 1224.03,234.30 1221.00,233.41C1217.97,232.52 1214.86,231.60 1214.08,231.36C1209.96,230.12 1216.07,229.10 1228.88,228.91L1243.27,228.69L1246.70,232.83C1248.59,235.11 1249.86,237.42 1249.51,237.98C1249.16,238.54 1245.20,239.00 1240.69,238.99C1234.22,238.99 1231.87,238.57 1229.50,237.01zM1536.00,237.11C1536.00,236.48 1537.15,234.22 1538.55,232.10C1541.38,227.83 1541.40,227.83 1561.67,226.38C1572.52,225.61 1574.30,226.03 1573.15,229.12C1572.56,230.72 1570.86,231.69 1566.92,232.68C1563.94,233.43 1559.94,234.78 1558.03,235.68C1553.70,237.70 1536.00,238.86 1536.00,237.11zM1709.50,235.88C1701.25,235.43 1687.97,234.55 1680.00,233.94C1672.03,233.32 1659.42,232.52 1652.00,232.16L1638.50,231.50L1638.19,228.84L1637.88,226.18L1658.69,225.51C1686.57,224.61 1693.39,224.67 1714.50,225.99C1749.07,228.16 1749.00,228.15 1749.00,229.66C1749.00,230.43 1748.44,231.21 1747.75,231.39C1747.06,231.57 1742.89,232.91 1738.47,234.36C1734.05,235.81 1729.10,236.93 1727.47,236.85C1725.84,236.77 1717.75,236.33 1709.50,235.88zM168.14,234.85C165.05,233.96 164.82,233.63 165.39,230.82C165.72,229.13 166.00,227.34 166.00,226.85C166.00,226.34 171.81,226.06 179.24,226.22L192.49,226.50L194.27,230.30C195.26,232.39 195.79,234.52 195.47,235.05C194.71,236.28 172.54,236.12 168.14,234.85zM270.79,234.70C266.87,233.85 265.91,233.18 265.04,230.69C264.47,229.05 264.00,227.32 264.00,226.85C264.00,226.38 269.36,226.00 275.90,226.00L287.80,226.00L288.90,229.15C291.16,235.62 290.79,236.02 282.75,235.86C278.76,235.79 273.38,235.26 270.79,234.70zM364.82,231.04L359.50,226.08L388.47,226.04C417.16,226.00 417.43,226.02 415.47,227.94C414.39,229.01 410.87,231.26 407.65,232.94C401.84,235.98 401.68,236.00 385.97,236.00L370.14,236.00L364.82,231.04zM491.00,234.73C491.00,234.03 492.14,231.78 493.54,229.73L496.07,226.00L517.91,226.00L539.75,226.00L540.35,228.75C540.68,230.26 541.24,232.51 541.59,233.75L542.23,236.00L516.62,236.00C496.60,236.00 491.00,235.72 491.00,234.73zM648.00,234.98C648.00,234.42 649.18,232.17 650.63,229.98L653.27,226.00L675.16,226.00C691.81,226.00 697.16,226.30 697.45,227.25C697.67,227.94 698.12,230.19 698.47,232.25L699.09,236.00L673.55,236.00C656.82,236.00 648.00,235.65 648.00,234.98zM774.64,231.92C772.09,229.67 770.00,227.42 770.00,226.92C770.00,226.38 781.81,226.02 798.25,226.04L826.50,226.07L823.75,228.33C822.23,229.57 818.63,231.81 815.75,233.31C810.69,235.93 809.95,236.03 794.89,236.02L779.28,236.00L774.64,231.92zM1330.50,233.18C1324.85,231.65 1323.05,230.57 1323.02,228.71C1323.01,228.27 1326.25,228.04 1330.21,228.21L1337.42,228.50L1338.09,231.75C1338.85,235.48 1338.93,235.47 1330.50,233.18zM1941.09,227.16C1940.49,226.04 1940.00,223.81 1940.00,222.20C1940.00,219.47 1940.32,219.23 1944.64,218.64C1947.19,218.29 1953.49,218.00 1958.64,218.00C1969.01,218.00 1969.23,218.18 1966.90,224.85L1965.80,228.00L1956.15,228.01C1950.84,228.02 1945.53,228.29 1944.34,228.61C1942.80,229.02 1941.86,228.60 1941.09,227.16zM2037.50,228.08L2031.50,227.50L2031.85,223.50C2032.05,221.30 2032.41,219.16 2032.66,218.75C2033.22,217.84 2041.57,217.78 2049.72,218.63C2055.63,219.25 2055.76,219.33 2057.86,223.65C2059.04,226.07 2060.00,228.27 2060.00,228.53C2060.00,229.13 2045.34,228.84 2037.50,228.08zM1881.00,190.57C1881.00,189.79 1880.05,184.50 1878.88,178.82C1876.67,168.05 1875.89,164.15 1874.12,155.00C1869.53,131.41 1867.80,124.69 1866.66,126.08C1866.47,126.31 1863.46,131.22 1859.97,137.00C1853.13,148.31 1849.21,154.71 1840.99,168.00C1838.10,172.68 1834.86,178.03 1833.79,179.91C1832.73,181.79 1830.78,184.90 1829.47,186.83C1828.16,188.76 1827.32,190.71 1827.60,191.17C1827.89,191.63 1840.02,192.00 1854.56,192.00C1876.79,192.00 1881.00,191.77 1881.00,190.57zM1687.00,174.04C1695.59,171.10 1700.40,168.46 1706.72,163.23C1713.08,157.95 1715.63,154.47 1718.11,147.71C1723.21,133.75 1717.32,121.66 1702.72,116.15C1697.00,114.00 1694.52,113.76 1671.99,113.26C1651.75,112.81 1647.29,112.95 1646.36,114.11C1645.75,114.87 1644.06,121.58 1642.62,129.00C1641.17,136.43 1639.57,144.30 1639.06,146.50C1638.55,148.70 1637.61,153.43 1636.97,157.00C1636.32,160.57 1635.44,164.85 1634.99,166.50C1633.18,173.23 1633.08,176.87 1634.71,177.19C1635.57,177.36 1646.22,177.22 1658.39,176.88C1677.59,176.34 1681.36,175.97 1687.00,174.04zM1246.09,168.93C1273.49,165.43 1296.00,150.58 1296.00,136.00C1296.00,129.13 1290.03,120.89 1282.70,117.62C1275.28,114.32 1271.64,113.86 1248.29,113.29C1221.80,112.64 1221.60,112.67 1220.53,118.32C1220.19,120.07 1219.53,123.30 1219.04,125.50C1218.56,127.70 1217.64,132.20 1217.00,135.50C1216.36,138.80 1215.46,143.30 1215.00,145.50C1214.54,147.70 1213.62,152.20 1212.97,155.50C1212.31,158.80 1211.34,162.95 1210.81,164.73C1210.29,166.51 1210.14,168.42 1210.49,168.98C1211.33,170.34 1235.29,170.30 1246.09,168.93zM1861.05,54.20C1857.70,50.85 1857.28,48.30 1859.40,44.20C1861.70,39.77 1862.23,39.36 1895.86,16.06C1914.97,2.82 1916.97,1.71 1921.74,1.69C1927.67,1.66 1930.00,3.99 1930.00,9.98C1930.00,17.04 1929.98,17.06 1883.62,48.82C1870.22,58.00 1865.88,59.04 1861.05,54.20z" fill="#ffffff" fill-rule="evenodd" stroke="none"/>
</svg>
